Coordinates
version=1
nRows=14
nColumns=36
inDegrees=yes

Units are S.I. units (second, meters, Newtons, ...)
If the header above contains a line with 'inDegrees', this indicates whether rotational values are in degrees (yes) or radians (no).

endheader
time	pelvis_tilt	pelvis_list	pelvis_rotation	pelvis_tx	pelvis_ty	pelvis_tz	hip_flexion_r	hip_adduction_r	hip_rotation_r	knee_angle_r	knee_angle_r_beta	ankle_angle_r	subtalar_angle_r	mtp_angle_r	hip_flexion_l	hip_adduction_l	hip_rotation_l	knee_angle_l	knee_angle_l_beta	ankle_angle_l	subtalar_angle_l	mtp_angle_l	lumbar_extension	lumbar_bending	lumbar_rotation	arm_flex_r	arm_add_r	arm_rot_r	elbow_flex_r	pro_sup_r	arm_flex_l	arm_add_l	arm_rot_l	elbow_flex_l	pro_sup_l
      0.35000000	     -0.07143318	     -2.83284499	      2.80825244	      0.36748493	      0.96567156	     -0.17577591	     -2.42418654	      9.69091461	      5.43088624	      3.79570053	      0.06624747	      6.87163906	    -11.63800658	     -6.59828890	     29.22392028	     -4.27977654	      0.43318297	     58.02915988	      1.01279990	     -0.60561111	    -13.12625318	     -6.59828890	     -5.01385776	      0.13282500	      5.39543366	      5.17622186	     -3.97623177	     -6.46546603	     32.45444303	    103.66230151	     -2.40681833	     -2.63879837	     -7.26644300	     26.64053705	    103.14979846
      0.36000000	     -0.15402636	     -2.61558755	      2.21929555	      0.37791295	      0.96542942	     -0.17541180	     -3.29784705	      9.42207449	      5.97684128	      3.40472095	      0.05942359	      7.37143465	    -11.29515087	     -6.60848411	     29.65283151	     -4.16454443	     -0.20380910	     55.30189669	      0.96520018	     -0.46564200	    -12.47946260	     -6.60848411	     -4.93688545	     -0.05263629	      6.19586770	      5.32373442	     -4.00823277	     -6.16720107	     33.27651101	    103.79556959	     -3.33085400	     -2.51504191	     -7.77442468	     26.21941875	    102.98651134
      0.37000000	     -0.10028706	     -2.50588349	      1.69378693	      0.38840411	      0.96509222	     -0.17517254	     -4.29648454	      9.25528619	      6.34001025	      3.06691691	      0.05352780	      8.16735322	    -10.59644435	     -6.63883859	     29.85776399	     -4.19927625	     -0.86768084	     52.36995439	      0.91402813	     -0.19631539	    -11.63974319	     -6.63883859	     -5.01423128	     -0.11096149	      6.92803480	      5.47602573	     -4.10620489	     -5.81337868	     34.17596402	    104.01875507	     -4.22505895	     -2.24461117	     -8.87005023	     25.94165560	    102.68667818
      0.38000000	     -0.18894722	     -2.42464795	      1.18330652	      0.39892303	      0.96432538	     -0.17498118	     -5.10287826	      9.10234861	      6.69862809	      2.77640959	      0.04845749	      8.75861544	    -10.16295602	     -6.65635700	     30.13822466	     -4.24055425	     -1.48706860	     49.25011137	      0.85957660	     -0.25899241	    -10.92207144	     -6.65635700	     -4.90609665	     -0.13714194	      7.63267837	      5.66429886	     -4.16776083	     -5.48972213	     34.87826975	    104.15741619	     -5.14147572	     -2.08979789	     -9.47825390	     25.56002813	    102.53500789
      0.39000000	     -0.46267993	     -2.46145853	      0.79380948	      0.40952328	      0.96302839	     -0.17503532	     -5.68817905	      9.07017699	      6.92650426	      2.51541132	      0.04390221	      9.12274241	     -9.84630989	     -6.66468987	     30.58988927	     -4.30198844	     -1.87078359	     46.00272301	      0.80289898	     -0.33185489	    -10.25447077	     -6.66468987	     -4.54174111	     -0.00241543	      8.10426987	      5.86233252	     -4.15160786	     -5.27135641	     35.51868570	    104.16796485	     -6.16868707	     -1.96145271	     -9.81070008	     25.11968037	    102.38072144
      0.40000000	     -0.34269940	     -2.43565688	      0.38234700	      0.42018347	      0.96211408	     -0.17510778	     -6.71050480	      8.93468341	      6.81166417	      2.26641090	      0.03955633	     10.35393419	     -8.39419043	     -6.72647154	     30.43280914	     -4.36628730	     -2.44036028	     42.45113481	      0.74091207	     -0.54931112	     -9.35148738	     -6.72647154	     -4.73321154	      0.02403254	      8.67302607	      6.13900040	     -4.26118880	     -4.79243512	     36.21561645	    104.34596738	     -7.01793813	     -1.65965416	    -11.33662006	     24.98423484	    102.10719053
      0.41000000	     -0.46028051	     -2.50382988	      0.03889731	      0.43085435	      0.96065478	     -0.17529211	     -7.49852228	      8.91636145	      7.07188463	      1.96694742	      0.03432971	     10.89087494	     -8.10044340	     -6.74295627	     30.49077932	     -4.44942956	     -2.81146692	     38.77934319	      0.67682722	     -0.86014164	     -8.48157928	     -6.74295627	     -4.61137866	      0.18066531	      9.20115404	      6.34129179	     -4.31171226	     -4.52614227	     36.85312925	    104.36383359	     -7.83800660	     -1.53301669	    -11.68937733	     24.50543053	    101.96408551
      0.42000000	     -0.64060752	     -2.62091817	     -0.23783002	      0.44159831	      0.95892125	     -0.17565014	     -8.21025491	      8.94094066	      7.22705307	      1.69310925	      0.02955033	     11.43985379	     -7.74451529	     -6.75571453	     30.54498846	     -4.51349381	     -3.02107449	     34.96434616	      0.61024296	     -1.14991326	     -7.54498720	     -6.75571453	     -4.40810307	      0.40080922	      9.65374633	      6.51881053	     -4.36500375	     -4.30243193	     37.45998964	    104.37194163	     -8.66853851	     -1.41346874	    -12.04789989	     24.05560759	    101.80650556
      0.43000000	     -0.95333841	     -2.78812606	     -0.45705030	      0.45228510	      0.95683047	     -0.17609947	     -8.75106870	      9.02325717	      7.40653737	      1.47249904	      0.02569996	     11.90239604	     -7.39169623	     -6.76420145	     30.67062211	     -4.57109933	     -3.04628458	     31.03041544	      0.54158292	     -1.32649569	     -6.55419635	     -6.76420145	     -4.07158809	      0.67426686	     10.00360930	      6.70880520	     -4.37989319	     -4.10295682	     38.05499960	    104.36825062	     -9.48977595	     -1.28963964	    -12.35071116	     23.64796671	    101.64704641
      0.44000000	     -0.94603299	     -2.89327859	     -0.65311076	      0.46311569	      0.95511576	     -0.17661180	     -9.66406721	      9.02510721	      7.31294109	      1.22070205	      0.02130527	     12.75802066	     -6.79211504	     -6.77935804	     30.28653738	     -4.60039540	     -3.30536567	     26.87886920	      0.46912477	     -1.56841530	     -5.37005087	     -6.77935804	     -4.15622280	      0.86034753	     10.46142694	      6.88803931	     -4.49331327	     -3.81084721	     38.65749731	    104.39171276	    -10.09147931	     -1.14880061	    -12.90923939	     23.22582771	    101.39833447
      0.45000000	     -1.37420686	     -3.10373866	     -0.79367461	      0.47392162	      0.95262946	     -0.17723360	    -10.04782314	      9.15433074	      7.38164973	      1.08156840	      0.01887693	     13.20429809	     -6.32038319	     -6.78827709	     30.38415240	     -4.66042003	     -3.24006262	     22.81348429	      0.39817041	     -1.48437998	     -4.19326529	     -6.78827709	     -3.68497796	      1.18410040	     10.70383924	      7.03492524	     -4.51435487	     -3.60930798	     39.18591738	    104.37114298	    -10.88848436	     -1.04814951	    -13.26877319	     22.88696244	    101.18985657
      0.46000000	     -1.59629312	     -3.27575946	     -0.91324420	      0.48490440	      0.95035592	     -0.17792466	    -10.67082709	      9.23400714	      7.26986973	      0.93865294	      0.01638258	     13.84098582	     -5.80069185	     -6.79870489	     30.13397416	     -4.69973648	     -3.30078881	     18.69282348	      0.32625132	     -1.35013629	     -2.77742882	     -6.79870489	     -3.45983143	      1.46355990	     11.00954326	      7.16687553	     -4.60297734	     -3.34663585	     39.66881512	    104.34937999	    -11.54811808	     -0.94721391	    -13.76013585	     22.50827083	    100.92316941
      0.47000000	     -1.62205496	     -3.43516119	     -0.98002242	      0.49596052	      0.94830833	     -0.17871781	    -11.48445784	      9.29410326	      6.85364785	      0.83242594	      0.01452857	     14.70708354	     -4.81177533	     -6.81575648	     29.63855157	     -4.73763466	     -3.60391333	     14.74208516	      0.25729792	     -1.02343182	     -1.06092728	     -6.81575648	     -3.52342941	      1.70085715	     11.25576989	      7.37487566	     -4.69598104	     -2.99257694	     40.08849232	    104.36710246	    -12.06986471	     -0.79688432	    -14.56136545	     22.15852566	    100.55030138
      0.48000000	     -2.08949393	     -3.63642305	     -1.08675875	      0.50709455	      0.94555188	     -0.17948404	    -11.79271239	      9.40420492	      6.80856902	      0.79302804	      0.01384095	     15.05764429	     -4.28148145	     -6.82409557	     29.69138844	     -4.81471150	     -3.80665875	     11.22433493	      0.19590160	     -0.57565470	      0.33355227	     -6.82409557	     -2.97902953	      2.00838065	     11.41421360	      7.48694426	     -4.69023678	     -2.78805299	     40.43646659	    104.34401933	    -12.80075074	     -0.73213413	    -14.99819845	     21.80298587	    100.32258150
